<svg width="396" height="619" viewBox="0 0 396 619" fill="none" xmlns="http://www.w3.org/2000/svg">
<path d="M202.241 1.99993C169.307 7.46659 140.241 19.1999 110.774 38.7999C89.7075 52.7999 62.5074 80.2666 47.7074 102.533C23.8408 138.533 9.04078 178.933 3.04078 225.333C-3.89256 278.533 1.17411 338 16.7741 389.733C42.6408 475.2 101.174 545.867 184.107 591.867C209.041 605.6 244.641 620.133 249.307 618.267C253.707 616.533 249.974 613.867 236.507 609.333C206.641 599.2 161.174 573.467 131.574 549.867C117.841 538.933 92.5075 513.6 81.7075 500.267C72.5075 488.8 68.3741 478.533 65.9741 461.333C63.9741 446 65.5741 432.933 72.2408 412C76.1075 400.133 77.3075 393.6 77.8408 383.333L78.5075 370L72.3741 358C68.2408 350 66.2408 344.267 66.2408 340.933C66.2408 335.867 66.2408 335.733 61.9741 336.667C44.3741 340.133 32.1074 353.6 30.5074 370.933C29.8408 379.333 28.9074 379.467 26.3741 372C18.2408 348.267 25.1741 331.067 45.4408 325.067C47.7074 324.4 56.1074 323.067 63.9741 322C81.0408 319.733 87.9741 316.933 94.1075 310C98.5075 304.933 107.574 287.733 107.574 284.4C107.574 283.467 105.307 281.6 102.641 280.267C98.1075 277.867 97.9741 277.6 100.641 276.8C105.041 275.333 115.174 263.2 119.441 254.133C121.574 249.733 124.641 241.6 126.107 236.267L128.774 226.533L125.174 229.067C118.107 233.733 113.441 234.933 97.3075 236C85.7075 236.667 80.1075 237.6 77.7075 239.2C74.3741 241.333 74.2408 241.2 74.2408 239.067C74.2408 234 77.3075 226.133 80.3741 223.067C82.1075 221.333 83.5741 219.6 83.5741 219.333C83.5741 218.933 79.7075 218.667 74.9075 218.667C57.7074 218.667 47.3074 225.333 38.3741 242.267C35.9741 246.8 32.2408 252.133 29.9741 254.133L25.9741 258L23.3074 254.667C20.9074 251.733 20.6408 249.867 21.1741 238C21.5741 226.933 22.2408 223.6 25.1741 218C34.5074 200.133 49.3074 195.2 74.1075 201.6C83.1741 204 89.3075 204.667 103.574 204.667C120.507 204.667 121.974 204.4 129.041 200.933C146.774 192.267 154.641 177.467 162.907 136.933C164.374 130.133 166.241 125.333 168.507 122.667L171.841 118.667H164.907C148.774 118.667 139.707 124.933 131.707 141.867C124.907 156.133 119.307 161.333 110.507 161.333C107.041 161.333 103.307 160.667 102.241 160C100.507 158.933 100.641 158.667 102.641 158.667C107.174 158.667 115.574 153.2 119.574 147.867C124.507 140.933 126.774 130 125.707 117.867C125.307 112.667 124.641 107.467 124.107 106.267C123.041 103.333 111.307 100.8 102.641 101.733C88.1075 103.2 76.5074 111.733 64.2408 130C51.9741 148.267 43.5741 152.533 36.3741 143.867L32.9074 139.733L39.5741 126.933C62.7741 82.6666 104.241 43.5999 148.907 23.9999C175.574 12.2666 198.907 6.79993 226.907 5.73326C272.774 3.99993 309.841 16.3999 337.307 42.5333C354.241 58.7999 363.574 73.4666 371.041 96C374.107 105.2 374.774 109.733 374.774 120.667C374.907 137.467 371.574 147.733 362.374 160C351.041 175.067 339.174 182.133 319.174 186C300.774 189.6 296.107 191.6 290.374 198.267C283.707 205.733 280.774 213.6 276.241 234.8C268.241 273.2 256.774 300.267 241.441 317.333L236.507 322.8L240.374 321.867C280.374 312.4 307.441 301.333 333.707 283.867C393.841 243.6 409.841 186.4 382.107 110.267C370.107 77.0666 368.241 72.9333 360.907 61.5999C340.374 29.9999 307.041 9.33326 265.307 1.99993C251.441 -0.400073 216.507 -0.400073 202.241 1.99993Z" fill="#F5E2BC"/>
</svg>
