<svg width="394" height="623" viewBox="0 0 394 623" fill="none" xmlns="http://www.w3.org/2000/svg">
<path d="M46.5741 6.93333C37.6408 17.3333 33.6408 26.2667 33.5074 36.4C33.3741 48.6667 37.1074 56 52.5741 74.5333C56.5741 79.4667 57.6408 81.4667 55.9074 80.6667C54.4408 80.1333 49.7741 79.3333 45.5075 78.9333C36.7074 78.2667 29.2408 80.5333 20.8408 86.5333C14.8408 91.0667 -2.35922 111.6 1.37411 110C8.30745 107.2 16.0408 107.867 30.9741 112.533C47.5075 117.733 53.3741 118.267 61.5075 115.467L66.8408 113.6L63.1074 122.667C58.5741 133.333 55.6408 146.4 54.4408 161.333C53.5074 172.267 53.5074 172.267 51.6408 167.733C50.5741 165.333 46.1741 159.867 41.7741 155.733C36.4408 150.667 33.6408 146.667 32.9741 143.867C32.3074 140.133 32.0408 139.867 31.1074 142C29.5074 146.133 29.7741 159.867 31.5074 163.067C32.3074 164.667 36.9741 169.867 41.9074 174.667C48.9741 181.6 51.1074 184.667 52.5741 190C54.8408 198.133 54.8408 205.2 52.5741 213.733C51.2408 218.667 51.1074 221.867 52.1741 227.867C53.2408 233.2 53.2408 237.6 52.3074 241.467C50.8408 248.267 51.9074 257.2 54.5741 260.8C55.6408 262.267 56.5741 265.867 56.5741 268.8C56.7074 290.933 67.9075 322.667 84.0408 346L90.3074 355.2L83.5075 348.267C79.7741 344.4 76.1741 341.333 75.3741 341.333C73.2408 341.333 72.1741 349.6 73.7741 353.733C75.1074 357.2 75.1075 357.333 70.0408 357.333C66.5741 357.333 64.1741 358.267 62.1741 360.4C58.7075 364 58.4408 365.6 61.2408 364.533C65.6408 362.8 72.4408 365.467 77.5075 370.933C86.0408 380.267 90.1741 383.733 94.4408 385.6C102.307 388.8 103.241 390.533 103.907 403.467C104.574 416.267 109.507 436.667 114.041 445.467C118.574 454.533 120.574 467.067 120.307 486C120.174 495.467 119.907 500.667 119.641 497.333C118.707 483.867 116.041 470.4 110.974 454.667C103.241 430.533 99.2408 411.6 99.2408 399.6C99.2408 394 98.7075 389.333 98.1741 389.333C95.7741 389.333 88.3075 398.667 86.0408 404.667L83.6408 411.067L82.0408 406.533C79.5075 399.067 71.3741 388.267 64.9741 384.133C61.6408 381.867 55.6408 379.467 51.5075 378.667C36.5741 375.6 32.5741 374.267 29.2408 370.933L25.9074 367.6V374.4C25.9074 382.667 29.3741 387.2 41.3741 394.8C50.8408 400.8 58.5741 408.8 61.3741 415.467C63.9074 421.467 63.9074 437.333 61.3741 437.333C58.0408 437.333 50.5741 431.333 48.3074 426.667L45.9074 422V430.667C45.9074 443.867 49.7741 450.667 66.1741 467.067C88.1741 488.933 95.5075 504.4 95.5075 528.667C95.5075 538.933 94.7075 544.533 92.1741 553.067L88.9741 564L92.1741 564.8C93.9075 565.333 100.307 565.333 106.307 565.067C119.774 564.4 129.907 560.133 145.241 548.8C159.241 538.4 168.574 534.133 175.374 535.067C181.107 535.867 181.507 535.333 178.574 531.067C176.041 527.467 168.174 524.8 163.107 525.867L159.107 526.667L161.907 522.667C169.507 512 171.774 504.133 172.574 485.733C173.241 468.533 173.374 468 177.107 464.133C179.374 461.867 182.041 460 183.107 460C184.841 459.867 184.707 459.6 182.841 458.533C181.374 457.733 178.841 457.333 177.107 457.733C175.374 458 173.907 458 173.907 457.733C173.907 456.133 180.441 444.8 185.507 437.467C192.307 428.133 195.774 426 207.907 424.8C222.707 423.2 226.841 421.467 236.041 413.2C247.107 403.067 249.374 402.533 257.907 408C268.574 414.8 277.107 426.533 284.441 444.267C289.374 455.867 294.174 461.333 297.641 459.2C301.774 456.533 303.374 451.733 302.707 443.467C301.641 429.867 293.241 416.4 280.574 407.733C277.374 405.6 277.507 405.6 283.907 407.467C308.841 414.667 329.241 432 339.507 454.533C345.774 468 347.641 479.333 347.774 502.667C347.774 526.533 345.907 536.267 338.307 551.733C332.707 563.2 326.974 567.333 313.641 569.467C287.641 573.733 277.241 578.133 264.574 590.4C256.574 598.133 255.641 598.667 252.574 597.333C246.974 594.8 235.641 585.467 232.441 580.667C230.707 578.267 228.974 576.4 228.441 576.8C226.707 577.733 225.907 588.667 227.107 592.933C227.774 595.333 228.041 597.333 227.641 597.333C227.241 597.333 223.241 595.333 218.841 593.067C213.774 590.267 205.774 583.733 197.507 575.733C182.574 561.067 176.174 557.333 166.174 557.333C157.774 557.333 147.507 562 143.907 567.467C140.974 571.867 141.641 582.133 145.241 587.6L147.774 591.333L148.707 587.067C150.041 580.667 152.174 578.667 158.174 578.667C163.907 578.667 172.974 582.8 184.974 590.933C197.507 599.467 212.974 605.333 222.974 605.333C227.241 605.333 227.374 605.467 226.441 609.867C226.041 612.4 226.041 616.4 226.574 618.667L227.507 622.8L233.774 616.267C244.574 604.933 256.174 600.267 264.974 603.6C273.374 606.8 294.041 606.667 303.241 603.467C316.441 598.8 328.574 584 335.374 564.133C336.841 560.267 338.441 556.267 339.107 555.467C339.774 554.667 341.641 550.933 343.107 547.333L345.774 540.667V550.133C345.907 561.733 350.041 578.267 354.974 586.933C358.841 593.867 367.374 605.2 368.707 605.333C369.241 605.333 368.041 599.733 366.307 592.933C361.907 576 361.107 560.133 363.774 541.6C368.707 507.067 364.307 484.267 348.841 464.4C346.174 460.933 341.774 453.867 339.374 448.933C333.641 437.6 322.041 424.8 310.707 417.467C301.107 411.2 285.374 404.533 276.707 403.2C271.241 402.267 267.774 400 271.907 400C274.841 400 284.574 394.933 288.307 391.467C296.174 384.4 299.241 368.933 294.174 362.667C290.441 358 286.707 360.133 281.641 369.733C276.307 379.733 264.841 392.267 256.841 396.933C251.241 400.267 250.441 400.4 243.374 398.933C233.241 396.8 227.774 396.933 219.641 399.333C211.107 401.867 200.841 410.8 193.107 422.667C189.907 427.467 185.374 434 182.974 437.333C180.574 440.667 176.307 447.467 173.641 452.667C170.841 457.733 168.574 461.6 168.574 461.067C168.441 458 177.374 436.533 180.707 432C182.841 429.067 184.041 426.667 183.241 426.667C181.107 426.667 171.374 436 170.574 438.933C170.041 440.4 169.374 441.2 168.974 440.8C168.574 440.4 170.574 435.467 173.374 429.733C180.174 416 191.374 404.667 204.707 398.133C214.574 393.333 228.974 389.467 237.907 389.333L242.574 389.2L237.507 386.533C225.107 380 207.241 380.533 191.641 387.867C180.041 393.467 174.174 400.667 164.574 421.333L161.907 427.333L162.574 417.333C163.507 405.333 167.374 388.4 171.107 379.467C172.974 375.2 177.507 369.6 184.441 362.8C196.974 350.667 199.374 346.267 200.574 333.867C201.907 320.133 205.641 315.733 218.041 312.667C229.374 309.867 245.774 310.4 252.307 313.867C254.707 315.067 260.041 319.2 264.174 322.933C271.774 329.733 278.307 333.333 283.241 333.333C285.907 333.333 285.774 332.933 281.641 327.2C277.374 321.2 272.441 316.267 265.907 311.6C264.041 310.4 266.841 311.333 272.041 313.867C282.441 318.933 284.174 320.667 296.841 336.667C310.841 354.267 326.974 365.6 344.974 370.267C358.707 373.733 377.641 370.933 389.507 363.733L393.774 361.2L388.841 354.4C381.641 344.267 370.307 333.733 362.574 329.867C353.241 325.333 344.707 324.667 332.574 327.333C310.041 332.4 302.841 331.333 288.174 320.933C279.507 314.667 271.107 310.133 263.374 307.333C256.841 304.933 260.974 304.933 269.907 307.333C273.907 308.4 279.374 309.333 281.907 309.2C286.441 309.2 286.441 309.067 283.241 307.733C281.374 306.933 273.641 303.2 265.907 299.6C254.041 293.867 250.707 292.933 243.907 292.8C234.041 292.8 225.641 296.8 214.974 306.533C209.507 311.467 205.374 314 199.241 315.867C182.441 321.2 168.841 334.667 163.907 351.2C160.307 362.667 158.841 379.867 160.174 392.8C161.374 404.133 159.641 434.4 157.107 444.267C155.241 452 153.907 447.467 153.907 433.733V419.333L150.574 424.267C148.707 427.067 146.574 430.933 145.641 432.933C140.841 444.8 144.174 415.2 149.774 397.067C151.907 390.267 154.574 377.733 155.774 369.333C158.041 353.467 162.574 341.333 169.374 332.4L172.707 328H169.241C165.241 328 156.574 332.133 154.041 335.2C151.107 338.667 150.307 337.733 147.907 328.667C146.574 323.867 145.107 320 144.574 320C143.241 320 135.641 337.333 133.774 344.4C132.974 347.6 131.641 355.6 130.707 362.133L129.107 374L126.707 362C123.107 343.467 122.441 325.067 125.107 314.667C130.174 295.067 140.974 283.733 177.641 259.467C206.041 240.667 215.374 232.8 221.641 222.267C228.574 210.8 230.307 202 229.507 184.133C229.107 175.867 228.307 168.533 227.641 167.867C227.107 167.333 226.574 175.867 226.574 187.067C226.574 206.4 226.441 207.733 222.974 215.067C216.974 227.867 205.507 238.4 177.241 257.2C163.374 266.4 151.507 274.133 150.974 274.4C150.307 274.667 149.907 273.867 149.907 272.667C149.907 271.467 148.841 268.667 147.641 266.667C145.507 262.933 145.507 262.8 149.641 258C155.641 251.2 159.507 243.2 158.974 238.267C158.574 234.8 159.641 233.2 165.774 227.467C174.707 218.933 179.241 209.867 179.241 200V192.8L173.774 198C155.507 215.733 135.374 257.867 127.241 295.333C124.041 310.267 122.441 313.6 123.907 302.667C128.174 268.133 144.974 228.533 167.907 198.533C171.374 194.267 173.641 190.667 172.974 190.667C169.507 190.667 155.774 200.533 147.107 209.2C138.841 217.467 135.907 221.6 130.841 232C119.774 255.2 118.841 264.133 120.707 325.6L121.374 347.867L116.841 342.533C112.707 337.6 103.907 332 100.574 332C99.9075 332 102.707 336.133 106.841 341.2C114.707 350.4 124.974 367.2 126.574 373.333C126.974 375.2 125.374 373.067 122.974 368.667C116.707 357.467 108.574 345.733 102.041 338.667L96.4408 332.667L96.9741 344C97.6408 358.4 100.307 364 118.441 388C125.907 397.867 132.574 406.8 133.107 407.733C134.441 410 142.041 436.4 141.507 436.933C141.241 437.067 139.774 434.4 138.174 430.8C135.241 424.533 128.441 416.4 130.307 421.6C132.707 428.267 132.707 433.867 130.441 442.933C127.374 454.667 126.974 486.4 129.774 496C130.574 499.333 131.774 503.067 132.174 504.4C132.707 506.533 132.441 506.667 130.174 505.467C125.241 502.8 123.241 503.6 123.241 508.133C123.241 519.467 114.707 540.8 106.307 550.667C100.441 557.467 97.7741 557.733 103.107 550.933C113.774 537.6 121.107 516.133 123.241 492.667C127.241 447.067 121.507 409.333 107.907 393.067C106.174 391.067 101.241 378.667 96.7075 364.8C82.9741 322.8 82.7074 304 95.2408 277.333C98.8408 269.467 102.441 259.6 103.241 254.667C105.507 241.733 102.707 220.8 100.041 231.333C99.5075 233.2 94.4408 239.733 88.5741 246C82.7075 252.267 77.1074 258.933 76.3074 260.933C75.5074 263.067 74.4408 269.467 74.0408 275.333L73.1075 286L71.3741 278C68.3074 264.533 70.0408 247.867 75.9074 233.733C90.4408 198.533 92.5741 184.133 86.3074 165.467C85.2408 162.133 83.5075 158.4 82.7075 157.067C81.3741 155.333 81.1075 156.133 81.1075 161.733C81.1075 169.333 77.6408 177.333 74.5741 177.333C70.7075 177.333 68.3075 183.333 68.7075 192.267C68.9741 198.8 68.4408 201.733 66.4408 204.667C64.5741 207.467 63.9074 211.067 63.7741 218C63.7741 223.067 63.5074 229.733 63.3741 232.667L62.9741 238L61.7741 233.333C56.1741 210 55.1074 156.933 59.9074 138.667C62.3074 129.467 70.7074 110.667 72.3074 110.667C72.8408 110.8 74.4408 112.667 75.9074 115.067C79.2408 120.267 85.9075 124.933 93.1075 126.8C97.6408 128 101.641 127.733 115.774 125.2C133.241 122.133 133.774 122.133 146.174 126.267C149.774 127.333 133.774 103.867 127.107 98.2667C117.507 90 106.174 87.7333 92.5741 91.3333C90.3075 92 91.2408 90.9333 95.2408 88.4C100.974 84.6667 101.774 84.5333 111.241 85.3333C119.907 86 122.574 86.9333 130.574 91.8667C138.707 96.8 140.707 97.4667 146.041 96.9333C149.507 96.6667 156.441 94.4 161.374 92C167.641 88.9333 173.374 87.3333 179.107 86.8L187.774 86L180.174 82.2667C161.374 73.0667 139.907 72.2667 116.574 79.8667C109.641 82 103.774 83.7333 103.641 83.4667C102.841 82.6667 116.174 77.3333 124.841 75.0667C130.707 73.3333 138.041 72.8 149.241 72.8C166.574 72.9333 175.907 75.2 186.174 82C188.974 83.8667 191.241 84.8 191.241 84C191.241 81.8667 181.774 76.4 173.241 73.4667C145.374 64.2667 109.641 72.2667 84.3074 93.6L77.6408 99.2L80.7075 93.2C83.1075 88.6667 83.7741 85.2 83.7741 78C83.7741 66.5333 82.5741 63.8667 69.2408 49.3333C56.5741 35.4667 52.5741 27.6 52.5741 16.6667C52.5741 12.2667 53.1074 6.66667 53.7741 4.26667C54.4408 2 54.5741 0 53.9074 0C53.2408 0 50.0408 3.2 46.5741 6.93333Z" fill="#F5E2BC"/>
<path d="M135.908 51.6C120.841 54.8 102.441 67.0667 90.8408 81.8667L86.5742 87.3333L90.8408 84.2667C97.6408 79.4667 116.307 71.0667 125.907 68.6667C139.774 64.9333 158.841 65.4667 171.774 69.8667C177.507 71.8667 185.107 75.0667 188.441 77.0667L194.574 80.6667L190.307 75.4667C185.107 69.0667 174.841 60.5333 168.307 57.2C158.441 52.1333 144.441 49.7333 135.908 51.6Z" fill="#F5E2BC"/>
<path d="M231.907 168C232.307 169.867 232.974 176.533 233.507 182.933C235.241 207.067 227.107 227.067 210.841 238.8C203.907 243.867 205.507 243.733 217.241 238.133C227.774 232.933 239.107 222.8 243.241 214.533C244.707 211.733 245.507 209.333 244.974 209.333C244.307 209.333 243.907 204.4 243.907 198.267C243.907 188.8 243.374 186.267 239.774 178.667C237.374 173.867 234.574 168.8 233.241 167.333C231.107 164.667 231.107 164.667 231.907 168Z" fill="#F5E2BC"/>
<path d="M217.241 172.533C212.441 180.667 209.907 189.467 209.907 197.733V204.4L206.841 201.6C205.107 200 202.841 198.667 201.641 198.667C199.774 198.667 199.641 200.267 200.174 209.733C200.841 220 199.641 227.6 195.641 237.2C194.307 240.533 203.107 234.4 209.507 227.6C220.307 216 225.774 198.133 224.041 179.6C222.841 166.133 221.641 164.933 217.241 172.533Z" fill="#F5E2BC"/>
<path d="M190.041 260.533C185.641 267.6 180.308 271.467 164.708 278.933C146.974 287.467 134.708 298.8 129.908 311.333C126.574 319.867 124.708 341.867 126.574 348.933C127.508 352.4 127.774 352 129.374 345.2C133.641 326.8 144.574 310.4 158.708 301.067C170.574 293.2 180.841 289.6 197.241 287.467L210.574 285.867L203.241 281.6C199.241 279.333 194.441 277.067 192.441 276.667L189.108 275.867L191.508 266.4C192.841 261.2 193.641 256.667 193.374 256.4C193.108 256.133 191.641 258 190.041 260.533Z" fill="#F5E2BC"/>
<path d="M294.174 395.467C290.307 396.4 285.641 398.133 283.774 399.067C280.574 400.667 280.841 400.933 290.841 405.067C313.507 414.267 330.707 428 338.441 442.667C346.441 458 355.374 463.333 365.907 459.2C376.841 454.8 381.241 438.933 375.241 425.6C369.507 413.067 351.774 399.867 334.441 395.467C324.307 392.8 303.774 392.8 294.174 395.467Z" fill="#F5E2BC"/>
<path d="M319.241 431.867C319.241 432.533 320.174 435.6 321.374 438.8C322.841 442.533 323.641 449.2 323.774 456.933C323.907 468.8 324.041 469.333 327.241 470.533C332.174 472.267 337.907 478.4 341.374 486C344.307 492.133 344.574 492.4 344.574 488.667C344.574 482.533 339.774 463.867 335.907 455.333C332.841 448.4 321.241 430.667 319.774 430.667C319.507 430.667 319.241 431.2 319.241 431.867Z" fill="#F5E2BC"/>
</svg>
