<svg width="465" height="612" viewBox="0 0 465 612" fill="none" xmlns="http://www.w3.org/2000/svg">
<path d="M329.907 2.00006C317.507 4.80006 283.107 16.1334 272.707 20.9334C214.841 47.2001 180.041 107.467 185.907 170.933C189.641 210.667 197.641 234.4 237.774 324.933C243.774 338.4 248.574 349.733 248.574 350.267C248.574 350.8 245.507 345.867 241.774 339.333C228.307 315.867 211.641 296.533 196.307 286.533C162.441 264.667 111.374 274.667 96.974 306.133C90.8407 319.733 93.2407 338 102.707 349.2C108.307 355.6 112.841 358.133 128.574 363.467C138.574 366.933 141.774 367.333 155.907 367.333C169.774 367.2 173.241 366.8 181.641 363.733C187.107 361.733 194.841 358.133 198.841 355.733C206.574 351.2 219.507 340.133 214.307 342.667C207.641 345.867 198.574 346.533 185.641 345.067C173.907 343.6 172.174 343.733 167.641 345.867C164.841 347.2 158.174 348.533 152.841 348.933C145.374 349.6 141.907 350.533 138.174 353.067C134.841 355.333 130.841 356.667 125.907 357.067C119.374 357.6 117.907 357.2 111.907 353.067C107.374 350 104.041 346.4 101.241 341.333C97.6407 334.8 97.2407 332.8 97.2407 322.667C97.2407 312.8 97.6407 310.533 100.841 305.2C117.774 276.267 163.907 268.8 195.641 289.867C210.174 299.6 228.841 322 241.374 344.933C250.841 362.133 264.841 398.8 262.841 400.933C262.441 401.2 261.774 400.4 261.374 398.933C260.841 397.467 257.507 393.467 253.774 390C227.907 365.867 180.307 371.6 167.107 400.533C163.907 407.6 163.774 422.4 166.841 431.333C171.641 445.6 186.574 454.667 205.107 454.667C217.107 454.667 224.707 451.067 230.574 442.8C234.041 437.867 234.574 435.733 234.974 426.933C235.641 409.333 229.507 402 214.174 402C206.707 402 203.641 402.8 196.174 406.4C191.241 408.8 187.241 411.333 187.241 411.867C187.241 413.067 193.507 417.733 197.241 419.333C198.707 419.867 205.774 420.8 212.841 421.2C228.174 422.267 231.241 424.133 231.241 432.267C231.241 436.4 230.174 438.533 225.907 443.2C217.774 452 206.041 454.267 191.107 449.867C180.974 446.933 170.974 436.667 168.574 426.667C164.974 411.867 169.507 396.533 179.641 388.8C190.574 380.4 206.307 376.667 221.107 378.8C255.507 383.6 270.041 406.133 266.174 448.4C262.441 488.667 249.774 516.267 222.707 543.467C210.441 555.6 208.307 557.2 199.374 560.533C194.041 562.4 184.974 564.667 179.374 565.467C167.241 567.2 161.374 569.6 148.441 578.4C129.507 591.2 117.374 592.533 97.5074 584.133C90.7074 581.333 83.774 578.533 81.9074 577.867C80.0407 577.2 66.3074 576.667 51.2407 576.667C20.4407 576.667 16.974 575.867 6.04069 566C-0.492643 560.133 -0.75931 560.933 4.70736 570.4C18.174 594 48.574 609.333 85.9074 611.467C103.907 612.533 120.174 610.4 137.507 604.667C163.507 596 182.841 584 211.241 559.067C242.974 531.067 259.107 505.2 266.707 469.333C269.107 457.867 269.507 445.333 268.574 397.333C268.174 380.133 268.574 376.533 271.641 365.2C283.241 321.467 316.041 292.267 364.041 283.2C414.441 273.733 461.907 303.733 461.907 345.2C461.907 376.4 439.774 403.733 411.507 407.467C405.374 408.267 404.707 408 402.707 404.933C401.507 403.2 400.041 399.067 399.507 395.867C398.574 391.067 397.907 390.133 395.907 390.4C394.441 390.667 391.641 392.533 389.641 394.667C387.641 396.933 385.507 398.667 384.841 398.667C383.374 398.667 377.374 392.133 375.107 388C373.774 385.6 373.241 379.067 373.241 364C373.241 335.467 372.174 332.533 355.774 316.533C348.841 309.867 343.241 303.6 343.241 302.533C343.241 301.467 342.841 301.333 342.041 302.133C339.241 304.8 335.241 330.533 335.241 344.933C335.241 381.867 350.041 400.4 385.241 407.867C392.441 409.467 401.774 410.667 405.907 410.667C427.641 410.667 446.574 398.267 457.107 377.2C463.107 365.333 464.974 355.6 464.307 341.2C463.507 325.2 457.774 313.2 444.974 301.333C414.307 272.667 363.107 270.8 318.574 296.8C304.974 304.8 288.307 321.333 280.841 334.133C274.307 345.333 268.174 363.067 265.774 377.333C264.974 382.8 264.041 386.667 263.774 386C261.374 376.267 252.041 350 245.774 335.067C235.641 310.8 230.841 296.133 226.707 276.267C212.441 208.933 225.241 154 263.641 117.867C280.841 101.733 295.907 93.7334 316.974 89.7334C358.041 82.0001 400.974 104.8 412.441 140.4C416.307 152.667 416.841 160.8 414.707 173.333C409.907 200.533 392.041 221.733 367.507 229.333C350.707 234.533 337.641 232 328.174 221.467C322.841 215.6 319.907 214.133 316.574 216C314.441 217.2 314.174 216.667 314.174 210.667C314.174 201.067 308.174 189.6 294.841 174.133C282.041 159.333 277.507 151.867 274.707 141.2L272.841 134L271.774 140.667C270.041 151.2 270.707 170.533 273.107 179.867C277.641 197.2 287.374 210.533 303.641 221.6C327.374 237.733 353.241 240.267 377.641 228.667C407.507 214.533 424.841 178 417.241 145.467C408.974 110.533 373.774 85.3334 333.241 85.3334C286.441 85.3334 243.241 120 226.041 171.333C216.174 200.933 215.374 239.067 223.907 278.533C224.974 284 225.774 288.533 225.507 288.8C224.974 289.333 212.841 260.667 206.707 244.533C184.574 186 182.841 135.6 201.774 95.4667C219.107 58.4001 252.707 29.2001 292.174 16.8001C302.041 13.7334 304.174 13.4667 312.841 14.6667C330.574 16.9334 334.841 19.3334 349.641 34.8001C361.774 47.7334 365.641 49.3334 387.241 50.8001C404.707 51.8667 412.574 53.8667 420.974 59.4667L426.041 62.8001L425.107 59.0667C424.707 57.0667 421.641 49.7334 418.307 42.9334C408.307 21.7334 391.641 7.46673 371.107 2.00006C362.307 -0.399937 340.174 -0.399937 329.907 2.00006Z" fill="#F5E2BC"/>
</svg>
