<svg width="269" height="630" viewBox="0 0 269 630" fill="none" xmlns="http://www.w3.org/2000/svg">
<path d="M62.1075 9.6C61.9742 14.9333 61.4408 26.2667 60.9075 34.6667L59.8408 50L67.9742 65.6C79.8408 88.1333 81.7075 94.6667 80.1075 106C78.2408 119.333 74.6408 132.4 64.6408 162.8L55.7075 190L54.7742 178.667C53.7075 166 50.9075 157.467 46.7742 154.933C45.3075 154 39.4408 151.467 33.8408 149.333C28.2408 147.333 22.3742 145.067 21.0408 144.533C18.9075 143.733 19.0408 144.4 22.1075 148.4C28.9075 157.333 31.5742 173.6 28.1075 185.733C26.7742 190.667 26.7742 190.667 34.9075 198.267C46.7742 209.2 50.2408 214.933 51.8408 226.133C53.5742 237.467 57.7075 248.133 69.7075 272.133C74.6408 282.133 80.2408 294.133 82.2408 298.8L85.7075 307.333L80.6408 302.267C74.1075 295.467 65.9742 290 55.5742 285.2C50.7742 283.067 46.7742 281.333 46.5075 281.333C46.2408 281.333 46.5075 284.667 47.1742 288.8C49.3075 302.133 53.9742 309.867 69.1742 324.667C85.1742 340 91.3075 350.133 91.1742 360.667C90.9075 373.6 82.2408 402 73.7075 418L69.4408 426L70.1075 420.667C71.0408 413.2 68.7742 399.333 65.1742 391.467L62.2408 384.933L50.9075 404.8C38.2408 426.933 33.7075 438.8 33.7075 448.667C33.7075 452.933 35.7075 461.6 39.4408 472.933C44.6408 488.667 45.1742 491.333 43.9742 496.267C43.3075 499.467 41.9742 507.067 41.0408 513.333C39.8408 521.2 38.9075 523.867 38.2408 522C32.3742 506.133 20.7742 492.4 6.90748 484.8C3.04082 482.667 0.107483 481.467 0.507483 482.133C0.77415 482.8 3.30748 488 6.10748 493.733C10.7742 503.067 11.1742 504.8 10.6408 512.267C10.1075 520.133 10.1075 520.533 14.7742 524.8C19.5742 529.067 19.5742 529.067 16.9075 531.867C14.6408 534.533 14.6408 535.2 16.1075 539.733C17.1742 542.4 19.8408 547.333 22.1075 550.667C26.1075 556.267 26.2408 556.933 24.7742 560.667C19.8408 572.267 26.2408 592.4 43.3075 618.4L50.5075 629.6L52.9075 624.4C54.2408 621.6 58.9075 614.533 63.4408 608.667C73.8408 595.067 76.2408 590.133 76.2408 583.067C76.2408 579.067 76.7742 577.333 78.1075 577.333C79.1742 577.333 81.1742 576.267 82.7742 575.067C85.3075 573.067 85.4408 572.133 84.3742 568.667C83.7075 566.4 82.3742 561.067 81.4408 556.667C80.2408 550.267 78.9075 547.733 74.6408 543.333L69.3075 538L72.1075 532.667C75.4408 526.267 75.5742 525.333 72.7742 525.333C71.1742 525.333 70.9075 524.667 71.5742 523.067C77.3075 509.467 77.8408 507.067 77.3075 496.667C76.9075 489.067 75.9742 484 73.7075 479.333C71.8408 475.333 70.3742 473.467 69.9742 474.667C69.7075 475.733 65.3075 485.067 60.2408 495.333C55.1742 505.6 49.4408 519.067 47.7075 525.333C43.7075 538.933 43.1742 534.667 46.2408 514.4C51.3075 480.4 65.5742 440 74.6408 433.467C76.7742 432 85.3075 427.733 93.5742 424.133C113.174 415.6 119.174 411.333 122.374 403.6C124.641 398.133 125.574 397.333 130.774 396C147.041 391.867 156.241 381.867 156.241 368.267C156.241 354 141.707 350.8 125.174 361.333C117.707 366 117.441 366.4 131.707 347.333C145.974 328.133 161.574 305.2 166.774 295.733C169.841 290.267 172.241 287.867 175.174 286.8C183.307 283.867 192.907 283.733 207.441 286C227.841 289.2 232.374 288.533 245.174 280.267C251.041 276.667 258.641 272.667 262.108 271.733L268.508 269.867L261.441 263.467C257.441 260 249.174 254.667 243.041 251.6C232.241 246.267 231.174 246 219.707 246C205.041 246 198.774 248.667 188.241 258.933C184.107 263.067 181.574 264.8 181.974 263.2C185.574 251.467 186.641 232.133 184.241 220C183.441 215.2 183.974 210 187.041 195.2C189.174 184.8 190.507 175.2 190.107 173.867C188.641 169.867 185.307 166.667 182.641 166.667C181.307 166.667 180.241 165.867 180.241 164.933C180.241 161.067 171.307 150 163.974 144.533C156.641 139.2 137.574 130.667 132.774 130.667C131.174 130.667 130.907 131.333 131.707 132.933C132.241 134.267 134.107 142.267 135.841 150.667C139.174 167.2 142.641 174.133 149.574 178.133C153.041 180.267 153.574 181.333 153.574 186.267C153.574 191.733 153.974 192.267 163.574 200.133C178.907 212.8 179.574 214.267 179.574 236.667C179.574 254.4 179.307 255.867 175.307 266.4C170.107 279.867 164.107 290.8 151.841 309.333C141.707 324.667 127.041 345.333 126.241 345.333C126.107 345.333 127.307 340.933 129.041 335.467C134.107 319.333 135.574 304.133 133.174 290.667C132.107 284.4 129.841 276 128.107 272L124.907 264.667L123.974 274.267C122.774 285.733 117.574 302.267 112.241 310.8L108.507 316.933L110.907 325.6C112.241 330.267 113.974 339.733 114.907 346.4L116.641 358.533L103.574 376C96.5075 385.467 90.3742 393.333 90.1075 393.333C89.9742 393.333 90.5075 390.533 91.5742 387.067C97.5742 366.933 99.1742 340.8 95.4408 323.067C92.5075 308.8 89.7075 301.867 74.1075 269.2C66.5075 253.467 59.5742 237.333 58.6408 233.467C57.1742 226.8 57.1742 226.533 60.3742 224.4C67.4408 219.467 80.3742 206 82.7742 200.8C85.3075 195.467 85.9742 191.067 85.7075 180.8L85.5742 175.6L79.8408 180.8C65.4408 193.6 60.2408 197.467 60.2408 195.333C60.2408 194.133 64.3742 180.4 69.4408 164.933C80.5075 131.067 83.7075 119.067 85.5742 105.067C86.2408 99.2 89.0408 88.8 91.7075 81.6C101.574 55.2 98.3742 34.1333 81.7075 15.6C76.7742 10.1333 64.7742 3.78489e-06 63.1742 3.78489e-06C62.6408 3.78489e-06 62.1075 4.4 62.1075 9.6Z" fill="#F5E2BC"/>
</svg>
