<svg width="380" height="621" viewBox="0 0 380 621" fill="none" xmlns="http://www.w3.org/2000/svg">
<path d="M300 2.80003C298.533 4.00003 291.6 7.60003 284.667 10.9334C277.733 14.2667 267.733 19.0667 262.4 21.4667C254.8 25.0667 250.8 28.2667 242.933 36.6667C234.4 45.8667 232.8 47.0667 231.333 45.3334C228.667 42.1334 227.733 42.9334 225.467 49.6C221.733 60.8 215.067 70.6667 201.467 84.8C194.133 92.4 188.667 97.4667 189.2 96C189.733 94.5333 190.533 90 190.933 86C191.6 79.0667 191.2 77.8667 182.8 61.6C178 52.1334 174 43.0667 174 41.6C174 38.8 173.867 38.8 171.333 42C167.733 46.8 165.6 55.6 166.267 63.2C166.667 66.9334 169.6 75.6 173.067 83.6C176.533 91.2 179.733 100.267 180.133 103.6C180.933 109.2 180.533 110.267 175.2 118.133C172.133 122.8 166.667 132 163.067 138.667L156.667 150.667V142.4C156.667 126.533 151.467 111.067 141.467 97.3333L136.667 90.6667V101.467C136.667 107.333 135.867 115.067 134.8 118.533L132.8 124.933L138 132.533C143.467 140.533 147.867 150.667 149.867 159.733C150.933 164.133 150.533 167.733 148 177.333C143.067 196.4 141.467 213.2 142.4 237.2C142.8 249.067 144.133 264.667 145.333 272C146.4 279.333 147.733 287.467 148.133 290C148.533 292.933 147.067 290.4 144.267 283.333C137.333 266.267 127.2 246.8 118.267 233.333C99.8668 206.133 97.0668 202.267 89.3334 194.533C76.8001 181.867 71.2001 180.133 40.6668 179.733C27.2001 179.6 15.3334 179.067 14.4001 178.8C11.7334 177.733 12.2667 178.933 17.4667 186.8C27.8667 202.4 45.3334 213.067 64.9334 215.467C104.133 220.267 104.267 220.4 114.4 235.6C124.133 250.133 136.4 275.867 143.333 295.867C146.267 304.533 148.533 312 148.267 312.267C148 312.4 145.867 310.4 143.6 307.467C137.333 299.733 124.133 290.4 109.333 283.2C84.6668 271.333 65.7334 256.133 59.4668 242.933C55.2001 233.733 52.2668 230.8 38.8001 221.333L29.6001 214.933L30.5334 222.533C30.9334 226.8 32.5334 232.533 34.0001 235.333C37.3334 242 46.5334 249.733 53.3334 251.6C56.2668 252.4 61.0668 255.333 64.0001 258C66.9334 260.8 72.9334 265.867 77.3334 269.467C81.7334 272.933 84.2668 275.467 82.8001 274.933C81.4668 274.4 72.8001 273.333 63.4668 272.533C54.2668 271.733 42.1334 270 36.4001 268.533C23.4667 265.333 20.1334 265.333 13.0667 268.8C8.00008 271.2 0.666748 278.133 0.666748 280.4C0.666748 281.867 16.0001 287.333 20.2667 287.333C22.4001 287.333 29.0667 284.933 35.2001 282C44.4001 277.467 47.4668 276.667 54.4001 276.667C64.4001 276.667 77.8668 278.533 90.6668 281.733L100 284L90.8001 285.6C78.1334 287.867 53.0668 300.133 45.6001 307.733C39.4668 313.733 34.8001 322.533 33.3334 330.4C32.2667 336 32.9334 336.4 40.2668 333.333C48.6668 329.867 53.7334 324.933 58.8001 315.6C66.4001 301.733 69.7334 298 77.3334 294.533C90.5334 288.4 107.2 288.933 122 295.867C134.267 301.467 148.8 319.867 154.533 336.933C155.6 340.4 159.6 364.933 163.333 391.6C171.867 453.467 176.533 485.6 177.6 490.667C178.133 493.733 176.667 492 171.2 484C160.533 468 144.8 452.933 132.667 446.933C124.8 442.933 121.2 440.133 116 433.733C102.267 416.933 95.4668 414.133 82.5334 419.733C78.1334 421.733 70.8001 424.267 66.0001 425.6L57.4668 428.133L64.9334 432.267C69.0668 434.667 75.7334 439.2 79.7334 442.533C93.2001 453.467 95.3334 454 114.133 450.533L125.6 448.4L132.4 451.867C140.933 456.133 153.467 467.733 162 479.067C168.133 487.333 169.6 490.8 165.733 487.733C162.133 484.8 152.8 482.8 139.6 482.133C132.133 481.733 126 481.733 126 482.267C126 484.133 134.4 492.8 137.867 494.533C139.733 495.467 147.067 496.667 154.133 497.067C171.867 498 175.6 499.867 180.667 510C182.933 514.4 187.333 524.8 190.533 533.067C201.6 561.733 215.6 586.4 231.733 605.6C241.067 616.667 246.933 621.6 248.933 619.6C249.733 618.8 247.333 615.6 242.533 610.533C222.133 589.6 203.867 558.4 192.667 525.067C189.067 514.267 188.667 511.2 188.667 497.067V481.067L194.133 473.2C197.2 468.933 202.533 462.267 206 458.533C213.333 450.8 217.867 442.533 221.867 429.467C223.333 424.533 224.667 420.133 224.667 419.733C224.667 418.533 206.933 434.133 201.733 439.867C198.933 442.933 196.667 444.8 196.667 444.267C196.667 442.4 206.133 420.267 209.733 414C216.933 401.467 224.133 391.867 233.867 381.6C244 371.067 244 371.067 244.667 374.8C245.333 378.133 245.867 378.667 250 378.667C254 378.667 254.933 378 256.533 374.267C258 371.2 259.067 370.133 260.533 370.8C265.867 373.067 269.733 372.933 272.667 370C276.133 366.533 275.733 364.8 270.4 361.2C266.533 358.533 266.4 358.4 268.8 356.8C272.8 354.4 274.8 349.2 272.667 346.667C270.267 343.733 266.8 344.133 262.133 348.133L258 351.6V346.4C258 340.533 256.133 338 251.733 338C247.867 338 245.6 342.267 246.267 348.8C246.8 354 246.667 354 241.867 354C238.667 354 236.667 354.667 236.133 356.133C234.533 360.4 235.333 363.467 238.667 364.933C241.867 366.4 241.867 366.4 230.667 378.133C224.533 384.667 216.267 394.8 212.4 400.667L205.333 411.467L204.133 401.733C203.467 396.4 202.933 388 202.8 383.067C202.667 378.267 202.267 374.533 201.733 374.8C201.2 375.067 199.6 378.8 198 383.067C194.4 392.667 193.2 408.133 195.2 419.867C196.667 428.267 196.533 429.333 192.667 441.333C190.533 448.4 187.733 459.867 186.533 467.067C182.4 493.2 182.933 492.667 179.467 473.333C175.6 452 174.267 415.2 176.533 395.733C179.6 370.667 186.8 345.067 192.4 338.933C194.4 336.933 199.6 333.467 204 331.467C212 327.6 216.667 322.933 216.667 318.533C216.667 316.933 217.467 316.533 219.467 317.067C221.867 317.733 222.8 316.533 226.267 309.067C228.4 304.267 229.867 300.133 229.6 299.867C228.267 298.533 213.733 307.6 206.133 314.667L197.467 322.667L204.533 309.333C214.8 289.733 227.333 272.667 244.667 255.2C266 233.6 272.267 229.333 286 226.8C292 225.6 301.867 224.667 307.867 224.667C320.667 224.667 323.733 223.067 327.333 214.667C329.333 209.867 330.533 208.8 334.533 208.133C339.733 207.2 347.733 201.6 359.733 190.533C364.8 185.733 369.6 182.8 373.733 181.6L379.867 179.733L372.667 177.867C355.867 173.733 332.533 176.533 321.467 184C317.867 186.4 314.8 187.333 310.133 187.333C302.133 187.333 297.733 190.533 293.333 199.6C288 210.533 279.6 220.267 268.8 227.867C243.333 245.733 219.067 273.467 200.4 306.267L194.667 316.267L194.533 304.133C194.533 294.933 193.733 290.133 191.467 284.4C187.867 275.067 186 273.467 186.933 280.4C187.333 283.6 186.4 290.533 184.133 299.067C180.267 314.267 179.867 323.467 182.533 334.133C184.4 341.2 184.4 342.133 181.2 352.133C176.933 365.333 172.933 384 171.867 395.733C171.333 400.667 170.8 404.533 170.533 404.267C170.267 404 168.267 391.333 166 376.133C159.733 332.933 160.933 302.933 169.6 287.067C178.267 271.2 194.533 257.733 207.2 256.133C215.2 255.067 222.667 251.733 226.667 247.333C228.8 244.933 228.933 244.267 227.333 243.2C223.733 240.8 213.067 242.667 207.2 246.8C204.133 248.933 198.267 252.667 194.133 255.067C190 257.467 183.467 262.667 179.6 266.4L172.533 273.333L176.4 264.533C182.667 250.667 190.933 238.4 196.933 234.4C200 232.267 202.8 229.733 203.333 228.667C203.867 227.6 206.133 222.933 208.4 218.267C213.067 208.933 212.267 208.133 202.533 212.533C196.667 215.2 192.4 220.8 190.267 228.933C189.467 231.733 187.6 235.733 186 237.867C184.533 240.133 180.933 245.733 178.267 250.4L173.333 258.8L173.467 240.133C173.6 229.733 174.267 219.6 175.2 217.6C177.333 212.267 176.933 201.467 174.133 190.8L171.867 181.6L167.6 186.8C160.8 195.067 160.267 205.733 166.133 219.467C168.8 225.6 168.933 227.6 168.267 248.4C167.6 268.133 166.933 272.8 162.8 289.2C160.133 299.333 158 309.2 158 311.067C158 317.867 156.8 312.8 152.8 288.667C146.8 252.667 145.333 231.2 147.2 210.933C148 201.867 149.333 192.4 150 189.733C151.733 183.733 162.933 172.933 178.667 162.4C191.733 153.6 199.067 146.4 203.333 138C206.667 131.6 205.733 131.333 194.4 135.467C183.6 139.467 169.6 149.067 163.733 156.4C161.067 159.867 158.267 163.2 157.733 164C155.6 166.533 163.733 147.733 169.733 136.267C177.067 122.267 193.733 99.7333 207.2 85.7333C216.933 75.4667 217.067 75.3334 231.067 70.8C238.933 68.2667 245.467 65.6 245.733 64.6667C246 63.8667 245.467 62.4 244.667 61.3334C243.333 59.7334 243.733 59.0667 246.8 58C272 48.9334 289.6 34.6667 298.4 16.5334C305.733 1.20003 306.133 -1.99997 300 2.80003Z" fill="#9D6331"/>
</svg>
